<svg xmlns="http://www.w3.org/2000/svg" width="18.199" height="18.194" viewBox="0 0 18.199 18.194">
  <g id="그룹_10648" data-name="그룹 10648" transform="translate(-1324 -2936.806)">
    <path id="패스_6145" data-name="패스 6145" d="M276.032,986.94l.62-2.482,7.812-7.812a2.208,2.208,0,0,1,3.122,0l0,0a2.208,2.208,0,0,1,0,3.122l-7.812,7.812-2.482.62A1.042,1.042,0,0,1,276.032,986.94Z" transform="translate(1052.766 1962)" fill="none" stroke="#1db4b4" stroke-linecap="round" stroke-linejoin="round" stroke-width="2"/>
    <path id="패스_6144" data-name="패스 6144" d="M266.588,980h-4.706A1.882,1.882,0,0,0,260,981.882v11.294a1.882,1.882,0,0,0,1.882,1.882h11.294a1.882,1.882,0,0,0,1.882-1.882v-4.706" transform="translate(1065 1958.941)" fill="none" stroke="#1db4b4" stroke-linecap="round" stroke-linejoin="round" stroke-width="2"/>
  </g>
</svg>
