<svg xmlns="http://www.w3.org/2000/svg" xmlns:xlink="http://www.w3.org/1999/xlink" width="10" height="93.762" viewBox="0 0 10 93.762">
  <defs>
    <clipPath id="clip-path">
      <rect id="사각형_627" data-name="사각형 627" width="6.773" height="10" fill="#fff"/>
    </clipPath>
  </defs>
  <g id="그룹_10411" data-name="그룹 10411" transform="translate(-193 -1536)">
    <g id="그룹_10390" data-name="그룹 10390" transform="translate(193 1629.762) rotate(-90)">
      <g id="그룹_91" data-name="그룹 91">
        <rect id="사각형_625" data-name="사각형 625" width="6.773" height="10" fill="#fff"/>
        <g id="그룹_90" data-name="그룹 90" clip-path="url(#clip-path)">
          <rect id="사각형_626" data-name="사각형 626" width="6.773" height="10" transform="translate(0 0)" fill="#fff"/>
        </g>
      </g>
      <path id="패스_365" data-name="패스 365" d="M9.879,4.875A4.739,4.739,0,0,1,4.94,9.751,4.739,4.739,0,0,1,0,4.875,4.738,4.738,0,0,1,4.94,0a4.738,4.738,0,0,1,4.94,4.875" transform="translate(7.683 0)" fill="#fff"/>
    </g>
    <g id="그룹_10391" data-name="그룹 10391" transform="translate(193.808 1536)">
      <path id="패스_366" data-name="패스 366" d="M310.38,105.4v-.988c0-.614.177-1.082.734-1.082a.678.678,0,0,1,.646.408h.02a.679.679,0,0,1,.706-.561c.6,0,.879.5.879,1.158V105.4Zm1.215-.944c0-.38-.153-.545-.391-.545-.263,0-.367.178-.367.537v.355h.759Zm1.312-.069c0-.408-.146-.63-.456-.63-.291,0-.412.218-.412.63v.416h.868Z" transform="translate(-310.097 -72.043)" fill="#fff"/>
      <path id="패스_367" data-name="패스 367" d="M313.229,98.9a1.106,1.106,0,0,1-1.19-1.053c0-.622.456-.944,1.082-.944a1.1,1.1,0,0,1,.27.028V98.32a.594.594,0,0,0,.565-.625.929.929,0,0,0-.158-.508l.363-.2a1.424,1.424,0,0,1,.25.791A1.1,1.1,0,0,1,313.229,98.9ZM313,97.407c-.306,0-.5.137-.5.428a.51.51,0,0,0,.5.492Z" transform="translate(-311.086 -68.299)" fill="#fff"/>
      <path id="패스_368" data-name="패스 368" d="M314.093,93.118l-.372-.271a.977.977,0,0,0,.246-.605c0-.226-.1-.327-.238-.327-.169,0-.246.234-.339.472-.109.286-.283.617-.658.617-.408,0-.694-.331-.694-.839a1.268,1.268,0,0,1,.278-.771l.359.267a.87.87,0,0,0-.194.488c0,.2.089.3.218.3.166,0,.226-.222.315-.46.113-.3.262-.63.682-.63.4,0,.715.311.715.9A1.424,1.424,0,0,1,314.093,93.118Z" transform="translate(-311.086 -64.995)" fill="#fff"/>
      <path id="패스_369" data-name="패스 369" d="M312.1,86.644V86.16l.234-.04V86.1a1.07,1.07,0,0,1-.291-.666c0-.557.456-.888,1.15-.888.775,0,1.223.464,1.223.96a.841.841,0,0,1-.246.561l.371-.016h.686v.589Zm1.1-1.486c-.432,0-.67.137-.67.448a.638.638,0,0,0,.234.448h.993a.631.631,0,0,0,.17-.412C313.923,85.369,313.69,85.159,313.2,85.159Z" transform="translate(-311.086 -60.936)" fill="#fff"/>
      <path id="패스_370" data-name="패스 370" d="M313.229,79.94a1.09,1.09,0,1,1,1.183-1.085A1.1,1.1,0,0,1,313.229,79.94Zm0-1.566c-.428,0-.706.173-.706.48s.279.48.706.48.7-.173.7-.48S313.653,78.375,313.229,78.375Z" transform="translate(-311.086 -56.893)" fill="#fff"/>
      <path id="패스_371" data-name="패스 371" d="M309.8,72.944v-.577h1.937v-.016l-.977-.783v-.646l.924.783,1.335-.855v.642l-.936.549.371.327h.565v.577Z" transform="translate(-309.752 -52.768)" fill="#fff"/>
      <path id="패스_372" data-name="패스 372" d="M313.229,67.177a1.106,1.106,0,0,1-1.19-1.053c0-.621.456-.944,1.082-.944a1.1,1.1,0,0,1,.27.028V66.6a.593.593,0,0,0,.565-.625.929.929,0,0,0-.158-.508l.363-.2a1.425,1.425,0,0,1,.25.791A1.1,1.1,0,0,1,313.229,67.177ZM313,65.687c-.306,0-.5.137-.5.428a.509.509,0,0,0,.5.492Z" transform="translate(-311.086 -49.387)" fill="#fff"/>
      <path id="패스_373" data-name="패스 373" d="M313.229,58.329a1.128,1.128,0,0,1-1.19-1.154.988.988,0,0,1,.25-.658l.384.283a.514.514,0,0,0-.149.347c0,.343.279.577.706.577s.7-.234.7-.561a.7.7,0,0,0-.181-.44l.391-.234a1.12,1.12,0,0,1,.275.739A1.08,1.08,0,0,1,313.229,58.329Z" transform="translate(-311.086 -44.206)" fill="#fff"/>
      <path id="패스_374" data-name="패스 374" d="M313.229,52.37a1.09,1.09,0,1,1,1.183-1.085A1.1,1.1,0,0,1,313.229,52.37Zm0-1.566c-.428,0-.706.174-.706.481s.279.48.706.48.7-.173.7-.48S313.653,50.8,313.229,50.8Z" transform="translate(-311.086 -40.456)" fill="#fff"/>
      <path id="패스_375" data-name="패스 375" d="M311.894,45.7a1.063,1.063,0,0,1-1.19-.948.776.776,0,0,1,.246-.573l-.355.024H309.8V43.61h3.22v.48l-.234.048v.012a.939.939,0,0,1,.291.625C313.077,45.337,312.633,45.7,311.894,45.7Zm.46-1.5h-.993a.6.6,0,0,0-.17.42c0,.254.242.469.694.469.468,0,.7-.17.7-.469A.5.5,0,0,0,312.355,44.2Z" transform="translate(-309.752 -36.527)" fill="#fff"/>
      <path id="패스_376" data-name="패스 376" d="M310,40.624a.355.355,0,1,1,.323-.355A.33.33,0,0,1,310,40.624Zm.686-.057v-.589h2.26v.589Z" transform="translate(-309.68 -34.326)" fill="#fff"/>
      <path id="패스_377" data-name="패스 377" d="M312.1,35.073v-.485l.3-.04v-.016a1.042,1.042,0,0,1-.355-.735c0-.488.339-.7.908-.7h1.408v.593H313.02c-.347,0-.472.1-.472.319a.649.649,0,0,0,.254.472h1.553v.589Z" transform="translate(-311.086 -30.261)" fill="#fff"/>
      <path id="패스_378" data-name="패스 378" d="M314.755,28.241a.55.55,0,0,1-.468-.323h-.02a.428.428,0,0,1-.38.206.561.561,0,0,1-.424-.25h-.016a.747.747,0,0,1-.59.3.833.833,0,0,1-.819-.912,1.06,1.06,0,0,1,.057-.339v-.816h.436v.388a.569.569,0,0,1,.343-.1.772.772,0,0,1,.767.871.965.965,0,0,1-.052.291.225.225,0,0,0,.193.1c.121,0,.186-.089.186-.355v-.383c0-.545.17-.839.565-.839.456,0,.8.472.8,1.227C315.336,27.829,315.155,28.241,314.755,28.241Zm-1.9-1.332c-.266,0-.415.149-.415.351s.149.355.415.355a.367.367,0,0,0,.416-.355C313.274,27.063,313.124,26.909,312.858,26.909Zm1.776-.275c-.161,0-.2.133-.2.376v.274a1.3,1.3,0,0,1-.032.315.339.339,0,0,0,.262.149c.19,0,.3-.21.3-.541S314.811,26.635,314.634,26.635Z" transform="translate(-311.086 -26.07)" fill="#fff"/>
      <path id="패스_379" data-name="패스 379" d="M325.229,116.408a1.128,1.128,0,0,1-1.19-1.154.989.989,0,0,1,.25-.658l.384.283a.515.515,0,0,0-.149.347c0,.343.279.577.706.577s.7-.234.7-.561a.7.7,0,0,0-.181-.44l.391-.234a1.12,1.12,0,0,1,.275.739A1.08,1.08,0,0,1,325.229,116.408Z" transform="translate(-318.241 -78.833)" fill="#fff"/>
      <path id="패스_380" data-name="패스 380" d="M325.591,110.17h-1.413v-.594h1.336c.351,0,.472-.1.472-.315a.545.545,0,0,0-.282-.46h-1.526v-.593h2.26v.484l-.323.044v.016a.908.908,0,0,1,.38.722C326.5,109.96,326.156,110.17,325.591,110.17Z" transform="translate(-318.324 -75.041)" fill="#fff"/>
      <path id="패스_381" data-name="패스 381" d="M324.1,104v-.484l.4-.04v-.016a.783.783,0,0,1-.456-.642.639.639,0,0,1,.048-.266l.512.1a.712.712,0,0,0-.036.234c0,.178.117.392.444.521h1.348V104Z" transform="translate(-318.241 -71.667)" fill="#fff"/>
      <path id="패스_382" data-name="패스 382" d="M324.1,99.137v-.484l.4-.04V98.6a.783.783,0,0,1-.456-.642.639.639,0,0,1,.048-.266l.512.1a.714.714,0,0,0-.036.234c0,.178.117.391.444.52h1.348v.589Z" transform="translate(-318.241 -68.769)" fill="#fff"/>
      <path id="패스_383" data-name="패스 383" d="M322,95.513a.355.355,0,0,1,0-.706.355.355,0,0,1,0,.706Zm.686-.057v-.589h2.26v.589Z" transform="translate(-316.834 -67.052)" fill="#fff"/>
      <path id="패스_384" data-name="패스 384" d="M325.229,90.509a1.128,1.128,0,0,1-1.19-1.154.988.988,0,0,1,.25-.657l.384.282a.516.516,0,0,0-.149.347c0,.343.279.577.706.577s.7-.234.7-.561a.7.7,0,0,0-.181-.44l.391-.234a1.12,1.12,0,0,1,.275.738A1.08,1.08,0,0,1,325.229,90.509Z" transform="translate(-318.241 -63.392)" fill="#fff"/>
      <path id="패스_385" data-name="패스 385" d="M325.591,84.27h-1.413v-.593h1.336c.351,0,.472-.1.472-.315a.545.545,0,0,0-.282-.46h-1.526v-.593h2.26v.484l-.323.044v.016a.908.908,0,0,1,.38.722C326.5,84.06,326.156,84.27,325.591,84.27Z" transform="translate(-318.324 -59.6)" fill="#fff"/>
      <path id="패스_386" data-name="패스 386" d="M324.387,78.961H321.8v-.589h2.615c.133,0,.178-.065.178-.121a.334.334,0,0,0-.008-.081l.44-.073a.807.807,0,0,1,.053.307C325.077,78.815,324.807,78.961,324.387,78.961Z" transform="translate(-316.906 -57.089)" fill="#fff"/>
      <path id="패스_387" data-name="패스 387" d="M325.591,73.75h-1.413v-.593h1.336c.351,0,.472-.1.472-.315a.545.545,0,0,0-.282-.46h-1.526v-.593h2.26v.484l-.323.044v.016a.908.908,0,0,1,.38.722C326.5,73.54,326.156,73.75,325.591,73.75Z" transform="translate(-318.324 -53.328)" fill="#fff"/>
      <path id="패스_388" data-name="패스 388" d="M324.1,64.878v-.485l.3-.04v-.016a.95.95,0,0,1-.359-.694.615.615,0,0,1,.4-.621,1,1,0,0,1-.4-.718c0-.48.339-.7.908-.7h1.408v.593H325.02c-.347,0-.472.1-.472.315a.658.658,0,0,0,.254.436h1.553v.593H325.02c-.347,0-.472.1-.472.315a.66.66,0,0,0,.254.436h1.553v.589Z" transform="translate(-318.241 -47.254)" fill="#fff"/>
      <path id="패스_389" data-name="패스 389" d="M322.176,53.658a.734.734,0,0,0-.048.238c0,.178.1.275.355.275h.194v-.424h.468v.424h1.792v.593h-1.792v.3h-.44l-.025-.3h-.186a.733.733,0,0,1-.835-.787,1.184,1.184,0,0,1,.081-.428Z" transform="translate(-316.823 -42.453)" fill="#fff"/>
      <path id="패스_390" data-name="패스 390" d="M325.229,49.851a1.089,1.089,0,1,1,1.183-1.085A1.1,1.1,0,0,1,325.229,49.851Zm0-1.565c-.428,0-.706.174-.706.48s.279.48.706.48.7-.173.7-.48S325.653,48.285,325.229,48.285Z" transform="translate(-318.241 -38.954)" fill="#fff"/>
      <path id="패스_391" data-name="패스 391" d="M324.1,43.808v-.485l.4-.04v-.016a.783.783,0,0,1-.456-.642.639.639,0,0,1,.048-.267l.512.1a.718.718,0,0,0-.036.234c0,.178.117.392.444.521h1.348v.589Z" transform="translate(-318.241 -35.782)" fill="#fff"/>
      <path id="패스_392" data-name="패스 392" d="M325.742,35.8c-.485,0-.739-.392-.836-1.3-.222.008-.391.1-.391.383a1.275,1.275,0,0,0,.214.621l-.392.214a1.8,1.8,0,0,1-.3-.944c0-.573.343-.868,1-.868h1.319v.485l-.242.044v.012a1.062,1.062,0,0,1,.3.682A.642.642,0,0,1,325.742,35.8Zm-.016-1.3h-.456c.073.549.222.734.424.734.177,0,.254-.125.254-.3A.6.6,0,0,0,325.726,34.5Z" transform="translate(-318.241 -30.744)" fill="#fff"/>
      <path id="패스_393" data-name="패스 393" d="M324.387,30.631H321.8v-.589h2.615c.133,0,.178-.064.178-.121a.334.334,0,0,0-.008-.081l.44-.073a.807.807,0,0,1,.053.307C325.077,30.486,324.807,30.631,324.387,30.631Z" transform="translate(-316.906 -28.275)" fill="#fff"/>
      <path id="패스_394" data-name="패스 394" d="M324.387,26.982H321.8v-.589h2.615c.133,0,.178-.064.178-.121a.333.333,0,0,0-.008-.08l.44-.073a.806.806,0,0,1,.053.307C325.077,26.837,324.807,26.982,324.387,26.982Z" transform="translate(-316.906 -26.099)" fill="#fff"/>
    </g>
  </g>
</svg>
