<svg id="date_range_black_48dp" xmlns="http://www.w3.org/2000/svg" width="18" height="18" viewBox="0 0 18 18">
  <path id="패스_173" data-name="패스 173" d="M0,0H18V18H0Z" fill="none"/>
  <path id="패스_174" data-name="패스 174" d="M5.667,8.3H7V9.7H5.667ZM15,4.8v9.8A1.372,1.372,0,0,1,13.667,16H4.333A1.368,1.368,0,0,1,3,14.6l.007-9.8A1.362,1.362,0,0,1,4.333,3.4H5V2H6.333V3.4h5.333V2H13V3.4h.667A1.372,1.372,0,0,1,15,4.8ZM4.333,6.2h9.333V4.8H4.333Zm9.333,8.4v-7H4.333v7ZM11,9.7h1.333V8.3H11Zm-2.667,0H9.667V8.3H8.333Z" fill="#afafaf"/>
</svg>
