<svg id="color_black_1" data-name="color/black 1" xmlns="http://www.w3.org/2000/svg" xmlns:xlink="http://www.w3.org/1999/xlink" width="18" height="18" viewBox="0 0 18 18">
  <defs>
    <clipPath id="clip-path">
      <path id="Mask" d="M18,1.8,16.2,0,9,7.2,1.8,0,0,1.8,7.2,9,0,16.2,1.8,18,9,10.8,16.2,18,18,16.2,10.8,9Z"/>
    </clipPath>
  </defs>
  <path id="Mask-2" data-name="Mask" d="M18,1.8,16.2,0,9,7.2,1.8,0,0,1.8,7.2,9,0,16.2,1.8,18,9,10.8,16.2,18,18,16.2,10.8,9Z"/>
  <g id="color_black_1-2" data-name="color/black 1" clip-path="url(#clip-path)">
    <g id="color_black_1-3" data-name="color/black 1" transform="translate(-6.429 -6.428)">
      <rect id="color_black_1_background" data-name="color/black 1 background" width="30.857" height="30.857" transform="translate(0 0)" fill="rgba(0,0,0,0)"/>
      <rect id="Rectangle" width="30.857" height="30.857" transform="translate(0 0)" fill="#787878"/>
    </g>
  </g>
</svg>
