<svg xmlns="http://www.w3.org/2000/svg" xmlns:xlink="http://www.w3.org/1999/xlink" width="112.029" height="18.885" viewBox="0 0 112.029 18.885">
  <defs>
    <clipPath id="clip-path">
      <rect id="사각형_7" data-name="사각형 7" width="4.332" height="16.194" fill="#fff"/>
    </clipPath>
    <clipPath id="clip-path-2">
      <rect id="사각형_6" data-name="사각형 6" width="4.331" height="16.194" fill="#fff"/>
    </clipPath>
    <clipPath id="clip-path-3">
      <rect id="사각형_11" data-name="사각형 11" width="4.569" height="17.27" fill="#fff"/>
    </clipPath>
    <clipPath id="clip-path-5">
      <rect id="사각형_13" data-name="사각형 13" width="12.53" height="7.808" fill="#fff"/>
    </clipPath>
    <clipPath id="clip-path-6">
      <rect id="사각형_12" data-name="사각형 12" width="12.53" height="7.809" fill="#fff"/>
    </clipPath>
    <clipPath id="clip-path-7">
      <rect id="사각형_17" data-name="사각형 17" width="15.906" height="4.297" fill="#fff"/>
    </clipPath>
    <clipPath id="clip-path-8">
      <rect id="사각형_16" data-name="사각형 16" width="15.905" height="4.297" fill="#fff"/>
    </clipPath>
  </defs>
  <g id="Logo" transform="translate(-249.971 -412.666)">
    <rect id="사각형_1" data-name="사각형 1" width="4.422" height="16.194" transform="translate(349.469 414.282)" fill="#fff"/>
    <rect id="사각형_2" data-name="사각형 2" width="4.57" height="16.194" transform="translate(255.649 414.282)" fill="#fff"/>
    <path id="패스_1" data-name="패스 1" d="M279.614,421.9a7.983,7.983,0,1,1-7.982-7.88,7.658,7.658,0,0,1,7.982,7.88m-11.551,0c0,2.31,1.411,3.978,3.569,3.978s3.567-1.668,3.567-3.978-1.411-3.978-3.567-3.978-3.569,1.668-3.569,3.978" transform="translate(2.421 0.239)" fill="#fff"/>
    <path id="패스_2" data-name="패스 2" d="M311.163,421.9a7.985,7.985,0,1,1-7.986-7.88,7.66,7.66,0,0,1,7.986,7.88m-11.553,0c0,2.31,1.412,3.978,3.567,3.978s3.57-1.668,3.57-3.978-1.412-3.978-3.57-3.978-3.567,1.668-3.567,3.978" transform="translate(8.003 0.239)" fill="#fff"/>
    <rect id="사각형_3" data-name="사각형 3" width="4.57" height="17.81" transform="translate(322.135 412.666)" fill="#fff"/>
    <path id="패스_3" data-name="패스 3" d="M333.676,421.9a7.983,7.983,0,1,1-7.983-7.88,7.658,7.658,0,0,1,7.983,7.88m-11.551,0c0,2.31,1.411,3.978,3.567,3.978s3.569-1.668,3.569-3.978-1.411-3.978-3.569-3.978-3.567,1.668-3.567,3.978" transform="translate(11.988 0.239)" fill="#fff"/>
    <path id="패스_4" data-name="패스 4" d="M295.745,421.9a7.985,7.985,0,1,1-7.985-7.88,7.659,7.659,0,0,1,7.985,7.88m-11.553,0c0,2.31,1.414,3.978,3.569,3.978s3.569-1.668,3.569-3.978-1.414-3.978-3.569-3.978-3.569,1.668-3.569,3.978" transform="translate(5.275 0.239)" fill="#fff"/>
    <g id="그룹_5" data-name="그룹 5" transform="translate(341.332 414.282)" opacity="0.7">
      <g id="그룹_4" data-name="그룹 4">
        <g id="그룹_3" data-name="그룹 3" clip-path="url(#clip-path)">
          <rect id="사각형_4" data-name="사각형 4" width="4.331" height="16.194" transform="translate(0.001)" fill="#fff"/>
          <g id="그룹_2" data-name="그룹 2" transform="translate(0.001)">
            <g id="그룹_1" data-name="그룹 1" clip-path="url(#clip-path-2)">
              <rect id="사각형_5" data-name="사각형 5" width="4.331" height="16.194" fill="#fff"/>
            </g>
          </g>
        </g>
      </g>
    </g>
    <g id="그룹_10" data-name="그룹 10" transform="translate(285.053 414.282)" opacity="0.7">
      <g id="그룹_9" data-name="그룹 9">
        <g id="그룹_8" data-name="그룹 8" clip-path="url(#clip-path-3)">
          <rect id="사각형_8" data-name="사각형 8" width="4.569" height="17.27" fill="#fff"/>
          <g id="그룹_7" data-name="그룹 7">
            <g id="그룹_6" data-name="그룹 6" clip-path="url(#clip-path-3)">
              <rect id="사각형_9" data-name="사각형 9" width="4.569" height="17.27" fill="#fff"/>
            </g>
          </g>
        </g>
      </g>
    </g>
    <g id="그룹_15" data-name="그룹 15" transform="translate(349.47 414.282)" opacity="0.7">
      <g id="그룹_14" data-name="그룹 14">
        <g id="그룹_13" data-name="그룹 13" clip-path="url(#clip-path-5)">
          <g id="그룹_12" data-name="그룹 12" transform="translate(0 -0.001)">
            <g id="그룹_11" data-name="그룹 11" clip-path="url(#clip-path-6)">
              <path id="패스_5" data-name="패스 5" d="M342.488,417.9a3.367,3.367,0,0,1,2.581,1.1l1.97-3.7a8.362,8.362,0,0,0-4.551-1.27,7.623,7.623,0,0,0-7.98,7.809h4.411c0-2.289,1.412-3.943,3.569-3.943" transform="translate(-334.509 -414.038)" fill="#fff"/>
            </g>
          </g>
        </g>
      </g>
    </g>
    <g id="그룹_20" data-name="그룹 20" transform="translate(249.971 414.282)" opacity="0.7">
      <g id="그룹_19" data-name="그룹 19">
        <g id="그룹_18" data-name="그룹 18" clip-path="url(#clip-path-7)">
          <rect id="사각형_14" data-name="사각형 14" width="15.905" height="4.297" transform="translate(0 -0.001)" fill="#fff"/>
          <g id="그룹_17" data-name="그룹 17" transform="translate(0 -0.001)">
            <g id="그룹_16" data-name="그룹 16" clip-path="url(#clip-path-8)">
              <rect id="사각형_15" data-name="사각형 15" width="15.906" height="4.297" transform="translate(0 0.001)" fill="#fff"/>
            </g>
          </g>
        </g>
      </g>
    </g>
  </g>
</svg>
