<svg xmlns="http://www.w3.org/2000/svg" width="19" height="19" viewBox="0 0 19 19">
  <g id="button_prev" transform="translate(19 19) rotate(180)">
    <g id="패스_575" data-name="패스 575" fill="#2c2c2c">
      <path d="M 9.5 18.75 C 4.399529933929443 18.75 0.25 14.6004695892334 0.25 9.5 C 0.25 4.399529933929443 4.399529933929443 0.25 9.5 0.25 C 14.6004695892334 0.25 18.75 4.399529933929443 18.75 9.5 C 18.75 14.6004695892334 14.6004695892334 18.75 9.5 18.75 Z" stroke="none"/>
      <path d="M 9.5 0.5 C 4.537380218505859 0.5 0.5 4.537380218505859 0.5 9.5 C 0.5 14.46261978149414 4.537380218505859 18.5 9.5 18.5 C 14.46261978149414 18.5 18.5 14.46261978149414 18.5 9.5 C 18.5 4.537380218505859 14.46261978149414 0.5 9.5 0.5 M 9.5 0 C 14.7467098236084 0 19 4.253290176391602 19 9.5 C 19 14.7467098236084 14.7467098236084 19 9.5 19 C 4.253290176391602 19 0 14.7467098236084 0 9.5 C 0 4.253290176391602 4.253290176391602 0 9.5 0 Z" stroke="none" fill="#4e4e4e"/>
    </g>
    <path id="패스_294" data-name="패스 294" d="M1803.616,4362.342l4.57,5.168-4.57,4.762" transform="translate(-1795.799 -4357.828)" fill="none" stroke="#fff" stroke-width="1"/>
  </g>
</svg>
