<svg xmlns="http://www.w3.org/2000/svg" width="97.367" height="102.419" viewBox="0 0 97.367 102.419">
  <path id="Icon_map-school" data-name="Icon map-school" d="M60.707,15.537v69.85H9.907V15.537h50.8M69.173,7.07H1.44v88.9H69.173ZM16.257,24h38.1V32.47h-38.1Zm0,14.817h38.1v8.467h-38.1Zm0,14.817h38.1V62.1h-38.1Zm0,14.817h38.1V76.92h-38.1ZM81.873,24H98.807V83.27H81.873ZM90.353.72a8.436,8.436,0,0,0-8.479,8.333v8.6H98.807v-8.6A8.426,8.426,0,0,0,90.353.72Zm-8.611,88.9L90.3,103.139,98.807,89.62Z" transform="translate(-1.44 -0.72)" fill="#f2f2f2" opacity="0.19"/>
</svg>
