<svg xmlns="http://www.w3.org/2000/svg" width="20.236" height="93.055" viewBox="0 0 20.236 93.055">
  <g id="그룹_10152" data-name="그룹 10152" transform="translate(-309.68 -26.07)">
    <path id="패스_366" data-name="패스 366" d="M310.38,108.686v-2.448c0-1.52.439-2.679,1.818-2.679a1.679,1.679,0,0,1,1.6,1.01h.05a1.682,1.682,0,0,1,1.749-1.39c1.489,0,2.178,1.24,2.178,2.869v2.638Zm3.008-2.338c0-.94-.38-1.35-.969-1.35-.651,0-.91.44-.91,1.33v.879h1.879Zm3.249-.17c0-1.01-.361-1.559-1.13-1.559-.72,0-1.02.539-1.02,1.559v1.029h2.15Z" fill="#fff"/>
    <path id="패스_367" data-name="패스 367" d="M314.987,101.846a2.739,2.739,0,0,1-2.948-2.608c0-1.54,1.129-2.339,2.679-2.339a2.729,2.729,0,0,1,.669.07v3.448a1.47,1.47,0,0,0,1.4-1.549,2.3,2.3,0,0,0-.39-1.259l.9-.5a3.527,3.527,0,0,1,.62,1.959A2.712,2.712,0,0,1,314.987,101.846Zm-.57-3.688c-.759,0-1.239.34-1.239,1.06a1.262,1.262,0,0,0,1.239,1.219Z" fill="#fff"/>
    <path id="패스_368" data-name="패스 368" d="M317.126,95.716l-.92-.67a2.421,2.421,0,0,0,.61-1.5c0-.559-.24-.809-.59-.809-.419,0-.609.579-.839,1.169-.27.709-.7,1.529-1.629,1.529-1.01,0-1.719-.82-1.719-2.079a3.14,3.14,0,0,1,.689-1.909l.89.66a2.156,2.156,0,0,0-.48,1.209c0,.5.22.74.54.74.41,0,.559-.55.779-1.139.28-.74.65-1.56,1.689-1.56.98,0,1.77.77,1.77,2.229A3.526,3.526,0,0,1,317.126,95.716Z" fill="#fff"/>
    <path id="패스_369" data-name="패스 369" d="M312.179,89.737v-1.2l.58-.1V88.4a2.65,2.65,0,0,1-.72-1.649c0-1.379,1.129-2.2,2.849-2.2,1.919,0,3.028,1.149,3.028,2.378a2.084,2.084,0,0,1-.61,1.389l.92-.039h1.7v1.459Zm2.728-3.679c-1.069,0-1.659.34-1.659,1.11a1.581,1.581,0,0,0,.58,1.11h2.458a1.562,1.562,0,0,0,.42-1.02C316.706,86.578,316.127,86.058,314.907,86.058Z" fill="#fff"/>
    <path id="패스_370" data-name="패스 370" d="M314.987,83.146a2.7,2.7,0,1,1,2.929-2.688A2.733,2.733,0,0,1,314.987,83.146Zm0-3.877c-1.059,0-1.749.429-1.749,1.189s.69,1.189,1.749,1.189,1.729-.429,1.729-1.189S316.036,79.269,314.987,79.269Z" fill="#fff"/>
    <path id="패스_371" data-name="패스 371" d="M309.8,76.037V74.608h4.8v-.04l-2.419-1.939v-1.6l2.289,1.938,3.307-2.118v1.589L315.457,73.8l.919.81h1.4v1.429Z" fill="#fff"/>
    <path id="패스_372" data-name="패스 372" d="M314.987,70.126a2.739,2.739,0,0,1-2.948-2.608c0-1.539,1.129-2.339,2.679-2.339a2.729,2.729,0,0,1,.669.07V68.7a1.47,1.47,0,0,0,1.4-1.549,2.3,2.3,0,0,0-.39-1.259l.9-.5a3.529,3.529,0,0,1,.62,1.959A2.712,2.712,0,0,1,314.987,70.126Zm-.57-3.688c-.759,0-1.239.34-1.239,1.06a1.261,1.261,0,0,0,1.239,1.219Z" fill="#fff"/>
    <path id="패스_373" data-name="패스 373" d="M314.987,61.046a2.794,2.794,0,0,1-2.948-2.858,2.448,2.448,0,0,1,.619-1.629l.95.7a1.274,1.274,0,0,0-.37.859c0,.85.69,1.429,1.749,1.429s1.729-.579,1.729-1.389a1.738,1.738,0,0,0-.449-1.089l.969-.58a2.774,2.774,0,0,1,.68,1.829A2.675,2.675,0,0,1,314.987,61.046Z" fill="#fff"/>
    <path id="패스_374" data-name="패스 374" d="M314.987,55.576a2.7,2.7,0,1,1,2.929-2.688A2.733,2.733,0,0,1,314.987,55.576Zm0-3.878c-1.059,0-1.749.431-1.749,1.19s.69,1.189,1.749,1.189,1.729-.429,1.729-1.189S316.036,51.7,314.987,51.7Z" fill="#fff"/>
    <path id="패스_375" data-name="패스 375" d="M314.987,48.786c-1.829,0-2.948-1.139-2.948-2.348a1.923,1.923,0,0,1,.609-1.419l-.88.059H309.8V43.61h7.975V44.8l-.579.12v.03a2.325,2.325,0,0,1,.72,1.549C317.916,47.887,316.816,48.786,314.987,48.786Zm1.14-3.708h-2.459a1.487,1.487,0,0,0-.42,1.039c0,.63.6,1.161,1.719,1.161,1.16,0,1.739-.42,1.739-1.161A1.248,1.248,0,0,0,316.127,45.078Z" fill="#fff"/>
    <path id="패스_376" data-name="패스 376" d="M310.479,41.667a.878.878,0,1,1,.8-.88A.817.817,0,0,1,310.479,41.667Zm1.7-.14V40.068h5.6v1.459Z" fill="#fff"/>
    <path id="패스_377" data-name="패스 377" d="M312.179,37.987v-1.2l.739-.1v-.04a2.58,2.58,0,0,1-.879-1.82c0-1.209.839-1.728,2.248-1.728h3.488v1.469h-3.307c-.86,0-1.17.24-1.17.79a1.607,1.607,0,0,0,.63,1.169h3.847v1.459Z" fill="#fff"/>
    <path id="패스_378" data-name="패스 378" d="M318.765,31.447a1.361,1.361,0,0,1-1.16-.8h-.049a1.061,1.061,0,0,1-.94.509,1.39,1.39,0,0,1-1.05-.619h-.039a1.849,1.849,0,0,1-1.46.74,2.063,2.063,0,0,1-2.028-2.259,2.623,2.623,0,0,1,.14-.839v-2.02h1.079v.96a1.408,1.408,0,0,1,.849-.259,1.911,1.911,0,0,1,1.9,2.158,2.391,2.391,0,0,1-.13.72.557.557,0,0,0,.479.24c.3,0,.46-.22.46-.88v-.949c0-1.35.42-2.079,1.4-2.079,1.129,0,1.988,1.169,1.988,3.038C320.2,30.427,319.755,31.447,318.765,31.447Zm-4.7-3.3c-.659,0-1.029.369-1.029.869s.37.88,1.029.88a.908.908,0,0,0,1.03-.88C315.1,28.529,314.727,28.149,314.067,28.149Zm4.4-.68c-.4,0-.5.33-.5.93v.679a3.215,3.215,0,0,1-.08.78.84.84,0,0,0,.649.37c.47,0,.739-.521.739-1.34C319.274,28.048,318.9,27.469,318.465,27.469Z" fill="#fff"/>
    <path id="패스_379" data-name="패스 379" d="M326.987,119.125a2.794,2.794,0,0,1-2.948-2.858,2.45,2.45,0,0,1,.619-1.629l.95.7a1.274,1.274,0,0,0-.37.859c0,.85.69,1.429,1.749,1.429s1.729-.579,1.729-1.389a1.738,1.738,0,0,0-.449-1.089l.969-.58a2.774,2.774,0,0,1,.68,1.829A2.675,2.675,0,0,1,326.987,119.125Z" fill="#fff"/>
    <path id="패스_380" data-name="패스 380" d="M327.677,113.066h-3.5V111.6h3.308c.869,0,1.169-.239,1.169-.779a1.35,1.35,0,0,0-.7-1.14h-3.778v-1.469h5.6v1.2l-.8.11v.04a2.25,2.25,0,0,1,.94,1.789C329.916,112.546,329.076,113.066,327.677,113.066Z" fill="#fff"/>
    <path id="패스_381" data-name="패스 381" d="M324.179,106.136v-1.2l.989-.1v-.04a1.939,1.939,0,0,1-1.129-1.589,1.584,1.584,0,0,1,.12-.66l1.269.26a1.759,1.759,0,0,0-.09.579c0,.44.29.97,1.1,1.29h3.338v1.459Z" fill="#fff"/>
    <path id="패스_382" data-name="패스 382" d="M324.179,101.276v-1.2l.989-.1v-.04a1.939,1.939,0,0,1-1.129-1.589,1.584,1.584,0,0,1,.12-.66l1.269.26a1.765,1.765,0,0,0-.09.58c0,.44.29.969,1.1,1.289h3.338v1.459Z" fill="#fff"/>
    <path id="패스_383" data-name="패스 383" d="M322.479,96.556a.878.878,0,0,1,0-1.749.878.878,0,0,1,0,1.749Zm1.7-.14V94.957h5.6v1.459Z" fill="#fff"/>
    <path id="패스_384" data-name="패스 384" d="M326.987,93.226a2.794,2.794,0,0,1-2.948-2.859,2.447,2.447,0,0,1,.619-1.628l.95.7a1.278,1.278,0,0,0-.37.86c0,.849.69,1.429,1.749,1.429s1.729-.58,1.729-1.389a1.743,1.743,0,0,0-.449-1.09l.969-.579a2.773,2.773,0,0,1,.68,1.828A2.675,2.675,0,0,1,326.987,93.226Z" fill="#fff"/>
    <path id="패스_385" data-name="패스 385" d="M327.677,87.166h-3.5V85.7h3.308c.869,0,1.169-.24,1.169-.78a1.35,1.35,0,0,0-.7-1.139h-3.778V82.309h5.6v1.2l-.8.11v.04a2.249,2.249,0,0,1,.94,1.789C329.916,86.646,329.076,87.166,327.677,87.166Z" fill="#fff"/>
    <path id="패스_386" data-name="패스 386" d="M328.206,80.236H321.8V78.777h6.476c.33,0,.44-.16.44-.3a.829.829,0,0,0-.02-.2l1.089-.18a2,2,0,0,1,.131.76C329.916,79.876,329.246,80.236,328.206,80.236Z" fill="#fff"/>
    <path id="패스_387" data-name="패스 387" d="M327.677,76.646h-3.5V75.177h3.308c.869,0,1.169-.24,1.169-.78a1.35,1.35,0,0,0-.7-1.139h-3.778V71.789h5.6v1.2l-.8.11v.04a2.249,2.249,0,0,1,.94,1.789C329.916,76.126,329.076,76.646,327.677,76.646Z" fill="#fff"/>
    <path id="패스_388" data-name="패스 388" d="M324.179,69.717v-1.2l.75-.1v-.04a2.352,2.352,0,0,1-.89-1.719,1.523,1.523,0,0,1,.979-1.539,2.48,2.48,0,0,1-.979-1.779c0-1.189.839-1.739,2.248-1.739h3.488V63.07h-3.307c-.86,0-1.17.25-1.17.78a1.63,1.63,0,0,0,.63,1.079h3.847V66.4h-3.307c-.86,0-1.17.25-1.17.78a1.634,1.634,0,0,0,.63,1.08h3.847v1.459Z" fill="#fff"/>
    <path id="패스_389" data-name="패스 389" d="M322.939,53.819a1.819,1.819,0,0,0-.12.589c0,.44.26.68.88.68h.48v-1.05h1.159v1.05h4.437v1.469h-4.437v.749h-1.089l-.061-.749h-.46a1.815,1.815,0,0,1-2.068-1.949,2.931,2.931,0,0,1,.2-1.059Z" fill="#fff"/>
    <path id="패스_390" data-name="패스 390" d="M326.987,53.056a2.7,2.7,0,1,1,2.929-2.688A2.733,2.733,0,0,1,326.987,53.056Zm0-3.877c-1.059,0-1.749.43-1.749,1.189s.69,1.189,1.749,1.189,1.729-.429,1.729-1.189S328.036,49.179,326.987,49.179Z" fill="#fff"/>
    <path id="패스_391" data-name="패스 391" d="M324.179,45.947v-1.2l.989-.1v-.04a1.94,1.94,0,0,1-1.129-1.589,1.584,1.584,0,0,1,.12-.66l1.269.259a1.773,1.773,0,0,0-.09.58c0,.44.29.97,1.1,1.29h3.338v1.459Z" fill="#fff"/>
    <path id="패스_392" data-name="패스 392" d="M328.257,38.6c-1.2,0-1.829-.97-2.07-3.218-.549.02-.969.26-.969.949a3.157,3.157,0,0,0,.53,1.539l-.97.53a4.466,4.466,0,0,1-.739-2.338c0-1.42.85-2.15,2.469-2.15h3.267v1.2l-.6.11v.03a2.631,2.631,0,0,1,.74,1.689A1.59,1.59,0,0,1,328.257,38.6Zm-.04-3.218h-1.13c.18,1.359.55,1.818,1.05,1.818.439,0,.63-.309.63-.739A1.486,1.486,0,0,0,328.217,35.379Z" fill="#fff"/>
    <path id="패스_393" data-name="패스 393" d="M328.206,31.906H321.8V30.447h6.476c.33,0,.44-.159.44-.3a.829.829,0,0,0-.02-.2l1.089-.18a2,2,0,0,1,.131.76C329.916,31.547,329.246,31.906,328.206,31.906Z" fill="#fff"/>
    <path id="패스_394" data-name="패스 394" d="M328.206,28.257H321.8V26.8h6.476c.33,0,.44-.159.44-.3a.826.826,0,0,0-.02-.2l1.089-.181a2,2,0,0,1,.131.76C329.916,27.9,329.246,28.257,328.206,28.257Z" fill="#fff"/>
  </g>
</svg>
